<svg xmlns="http://www.w3.org/2000/svg" xmlns:xlink="http://www.w3.org/1999/xlink" width="500" zoomAndPan="magnify" viewBox="0 0 375 374.999991" height="500" preserveAspectRatio="xMidYMid meet" version="1.0"><defs><g/><clipPath id="5ad94113d2"><path d="M 20 106 L 356 106 L 356 301 L 20 301 Z M 20 106 " clip-rule="nonzero"/></clipPath><clipPath id="dc72f8aa78"><path d="M 75.113281 17.574219 L 378.285156 134.511719 L 299.324219 339.21875 L -3.84375 222.277344 Z M 75.113281 17.574219 " clip-rule="nonzero"/></clipPath><clipPath id="5890ac0ac0"><path d="M 75.113281 17.574219 L 378.285156 134.511719 L 299.324219 339.21875 L -3.84375 222.277344 Z M 75.113281 17.574219 " clip-rule="nonzero"/></clipPath><clipPath id="8f703c08a5"><path d="M 353.605469 181.492188 C 361.164062 155.8125 348.253906 128.039062 323.871094 117.117188 C 305.050781 108.613281 284.214844 111.765625 269.039062 123.179688 C 261.472656 128.828125 251.007812 128.382812 243.65625 122.367188 C 238 117.699219 231.367188 113.761719 224.152344 110.976562 C 202.988281 102.8125 180.304688 105.390625 162.058594 116.171875 C 151.484375 122.457031 138.363281 122.089844 127.753906 115.925781 C 123.148438 113.183594 118.070312 110.949219 112.761719 109.316406 C 78.332031 98.660156 41.011719 115.898438 26.628906 148.894531 C 10.242188 186.363281 28.558594 229.484375 66.316406 244.046875 C 81.949219 250.078125 98.347656 250.1875 113.082031 245.648438 C 127.984375 241.035156 143.914062 247.730469 150.980469 261.644531 C 159.246094 277.820312 173.648438 290.972656 192.539062 297.15625 C 227.265625 308.476562 265.5625 291.199219 280.011719 257.679688 C 281.664062 253.757812 282.980469 249.984375 283.984375 245.949219 C 287.265625 232.433594 297.859375 222.15625 311.566406 219.566406 C 330.746094 216.050781 347.589844 202.105469 353.605469 181.492188 Z M 353.605469 181.492188 " clip-rule="nonzero"/></clipPath><clipPath id="818a5210ea"><path d="M 121 80 L 153 80 L 153 112 L 121 112 Z M 121 80 " clip-rule="nonzero"/></clipPath><clipPath id="b3dc9ecba0"><path d="M 75.113281 17.574219 L 378.285156 134.511719 L 299.324219 339.21875 L -3.84375 222.277344 Z M 75.113281 17.574219 " clip-rule="nonzero"/></clipPath><clipPath id="ebc28fdc35"><path d="M 75.113281 17.574219 L 378.285156 134.511719 L 299.324219 339.21875 L -3.84375 222.277344 Z M 75.113281 17.574219 " clip-rule="nonzero"/></clipPath><clipPath id="6694550744"><path d="M 151.484375 101.320312 C 151.125 102.261719 150.671875 103.15625 150.132812 104.007812 C 149.59375 104.855469 148.976562 105.648438 148.285156 106.375 C 147.589844 107.105469 146.832031 107.761719 146.007812 108.339844 C 145.183594 108.921875 144.3125 109.414062 143.390625 109.824219 C 142.46875 110.230469 141.519531 110.546875 140.535156 110.765625 C 139.554688 110.988281 138.558594 111.109375 137.550781 111.132812 C 136.546875 111.160156 135.546875 111.085938 134.554688 110.914062 C 133.5625 110.742188 132.597656 110.472656 131.65625 110.109375 C 130.714844 109.75 129.820312 109.296875 128.96875 108.757812 C 128.121094 108.21875 127.328125 107.605469 126.601562 106.910156 C 125.871094 106.214844 125.214844 105.457031 124.636719 104.632812 C 124.054688 103.808594 123.5625 102.9375 123.152344 102.015625 C 122.746094 101.097656 122.433594 100.144531 122.210938 99.160156 C 121.992188 98.179688 121.867188 97.183594 121.84375 96.179688 C 121.816406 95.171875 121.890625 94.171875 122.0625 93.179688 C 122.234375 92.1875 122.503906 91.222656 122.867188 90.28125 C 123.226562 89.34375 123.679688 88.445312 124.21875 87.597656 C 124.757812 86.746094 125.375 85.953125 126.066406 85.226562 C 126.761719 84.496094 127.519531 83.839844 128.34375 83.261719 C 129.167969 82.683594 130.039062 82.1875 130.960938 81.78125 C 131.878906 81.371094 132.832031 81.058594 133.816406 80.835938 C 134.796875 80.617188 135.792969 80.492188 136.800781 80.46875 C 137.804688 80.445312 138.804688 80.515625 139.796875 80.691406 C 140.789062 80.863281 141.753906 81.128906 142.695312 81.492188 C 143.636719 81.855469 144.53125 82.304688 145.382812 82.84375 C 146.230469 83.382812 147.023438 84 147.75 84.691406 C 148.480469 85.386719 149.136719 86.144531 149.714844 86.96875 C 150.296875 87.792969 150.789062 88.664062 151.199219 89.585938 C 151.605469 90.507812 151.917969 91.457031 152.140625 92.441406 C 152.359375 93.421875 152.484375 94.417969 152.507812 95.425781 C 152.535156 96.429688 152.460938 97.429688 152.289062 98.421875 C 152.117188 99.414062 151.847656 100.382812 151.484375 101.320312 Z M 151.484375 101.320312 " clip-rule="nonzero"/></clipPath><clipPath id="6de32c2bed"><path d="M 221 78 L 240 78 L 240 97 L 221 97 Z M 221 78 " clip-rule="nonzero"/></clipPath><clipPath id="aa6f88e57d"><path d="M 75.113281 17.574219 L 378.285156 134.511719 L 299.324219 339.21875 L -3.84375 222.277344 Z M 75.113281 17.574219 " clip-rule="nonzero"/></clipPath><clipPath id="aa50e1273c"><path d="M 75.113281 17.574219 L 378.285156 134.511719 L 299.324219 339.21875 L -3.84375 222.277344 Z M 75.113281 17.574219 " clip-rule="nonzero"/></clipPath><clipPath id="16b0e254b1"><path d="M 238.691406 90.476562 C 238.476562 91.039062 238.207031 91.570312 237.886719 92.078125 C 237.5625 92.585938 237.195312 93.058594 236.78125 93.492188 C 236.367188 93.929688 235.914062 94.320312 235.421875 94.664062 C 234.933594 95.011719 234.410156 95.304688 233.863281 95.550781 C 233.3125 95.792969 232.746094 95.980469 232.160156 96.113281 C 231.574219 96.242188 230.980469 96.316406 230.378906 96.332031 C 229.777344 96.347656 229.179688 96.300781 228.589844 96.199219 C 227.996094 96.097656 227.421875 95.9375 226.859375 95.722656 C 226.300781 95.503906 225.765625 95.234375 225.257812 94.914062 C 224.75 94.59375 224.277344 94.226562 223.84375 93.8125 C 223.410156 93.398438 223.019531 92.945312 222.671875 92.453125 C 222.328125 91.960938 222.03125 91.441406 221.789062 90.890625 C 221.542969 90.34375 221.355469 89.773438 221.226562 89.1875 C 221.09375 88.601562 221.019531 88.007812 221.003906 87.40625 C 220.992188 86.808594 221.035156 86.210938 221.136719 85.617188 C 221.242188 85.027344 221.398438 84.449219 221.617188 83.890625 C 221.832031 83.328125 222.101562 82.796875 222.421875 82.289062 C 222.742188 81.78125 223.113281 81.308594 223.527344 80.875 C 223.941406 80.4375 224.394531 80.046875 224.882812 79.703125 C 225.375 79.355469 225.894531 79.0625 226.445312 78.816406 C 226.996094 78.574219 227.5625 78.386719 228.148438 78.253906 C 228.734375 78.125 229.328125 78.050781 229.929688 78.035156 C 230.53125 78.019531 231.125 78.0625 231.71875 78.167969 C 232.308594 78.269531 232.886719 78.429688 233.445312 78.644531 C 234.007812 78.863281 234.542969 79.128906 235.050781 79.453125 C 235.558594 79.773438 236.027344 80.140625 236.464844 80.554688 C 236.898438 80.96875 237.289062 81.421875 237.636719 81.914062 C 237.980469 82.40625 238.277344 82.925781 238.519531 83.476562 C 238.761719 84.023438 238.949219 84.59375 239.082031 85.179688 C 239.214844 85.765625 239.289062 86.359375 239.300781 86.957031 C 239.316406 87.558594 239.273438 88.15625 239.171875 88.746094 C 239.066406 89.339844 238.90625 89.914062 238.691406 90.476562 Z M 238.691406 90.476562 " clip-rule="nonzero"/></clipPath><clipPath id="ee7f2519bd"><path d="M 302 239 L 332 239 L 332 269 L 302 269 Z M 302 239 " clip-rule="nonzero"/></clipPath><clipPath id="8c34678664"><path d="M 75.113281 17.574219 L 378.285156 134.511719 L 299.324219 339.21875 L -3.84375 222.277344 Z M 75.113281 17.574219 " clip-rule="nonzero"/></clipPath><clipPath id="3c12ce9f52"><path d="M 75.113281 17.574219 L 378.285156 134.511719 L 299.324219 339.21875 L -3.84375 222.277344 Z M 75.113281 17.574219 " clip-rule="nonzero"/></clipPath><clipPath id="3806581006"><path d="M 330.796875 258.894531 C 330.453125 259.78125 330.03125 260.621094 329.523438 261.421875 C 329.015625 262.222656 328.4375 262.96875 327.78125 263.652344 C 327.128906 264.339844 326.414062 264.957031 325.640625 265.503906 C 324.863281 266.046875 324.042969 266.511719 323.175781 266.898438 C 322.3125 267.28125 321.414062 267.578125 320.492188 267.785156 C 319.566406 267.992188 318.628906 268.109375 317.683594 268.132812 C 316.734375 268.15625 315.792969 268.085938 314.859375 267.921875 C 313.925781 267.761719 313.015625 267.507812 312.132812 267.167969 C 311.25 266.828125 310.40625 266.402344 309.605469 265.894531 C 308.804688 265.390625 308.058594 264.808594 307.375 264.15625 C 306.6875 263.5 306.070312 262.789062 305.527344 262.011719 C 304.980469 261.238281 304.515625 260.417969 304.128906 259.550781 C 303.746094 258.683594 303.449219 257.789062 303.242188 256.863281 C 303.035156 255.9375 302.917969 255.003906 302.898438 254.054688 C 302.875 253.105469 302.941406 252.167969 303.105469 251.234375 C 303.265625 250.300781 303.519531 249.390625 303.859375 248.503906 C 304.199219 247.621094 304.625 246.777344 305.132812 245.976562 C 305.640625 245.175781 306.21875 244.433594 306.871094 243.746094 C 307.527344 243.058594 308.242188 242.445312 309.015625 241.898438 C 309.789062 241.351562 310.609375 240.886719 311.476562 240.503906 C 312.34375 240.121094 313.238281 239.824219 314.164062 239.617188 C 315.089844 239.410156 316.023438 239.292969 316.972656 239.269531 C 317.921875 239.246094 318.859375 239.316406 319.796875 239.476562 C 320.730469 239.640625 321.636719 239.890625 322.523438 240.230469 C 323.40625 240.574219 324.25 240.996094 325.050781 241.503906 C 325.851562 242.011719 326.59375 242.59375 327.28125 243.246094 C 327.96875 243.898438 328.582031 244.613281 329.128906 245.386719 C 329.675781 246.164062 330.140625 246.984375 330.523438 247.851562 C 330.910156 248.71875 331.203125 249.613281 331.410156 250.539062 C 331.621094 251.460938 331.734375 252.398438 331.757812 253.347656 C 331.78125 254.292969 331.710938 255.234375 331.550781 256.167969 C 331.386719 257.101562 331.136719 258.011719 330.796875 258.894531 Z M 330.796875 258.894531 " clip-rule="nonzero"/></clipPath><clipPath id="4f2272647e"><rect x="0" width="108" y="0" height="157"/></clipPath><clipPath id="a6312ce8e2"><rect x="0" width="193" y="0" height="145"/></clipPath><clipPath id="dfbfb65ae5"><rect x="0" width="65" y="0" height="37"/></clipPath><clipPath id="38385fcae8"><rect x="0" width="375" y="0" height="375"/></clipPath></defs><g transform="matrix(1, 0, 0, 1, 0, 0)"><g clip-path="url(#38385fcae8)"><g clip-path="url(#5ad94113d2)"><g clip-path="url(#dc72f8aa78)"><g clip-path="url(#5890ac0ac0)"><g clip-path="url(#8f703c08a5)"><path fill="#4b5ae4" d="M 55.691406 -19.167969 L -60.207031 281.304688 L 315.714844 426.304688 L 431.613281 125.832031 Z M 55.691406 -19.167969 " fill-opacity="1" fill-rule="nonzero"/></g></g></g></g><g clip-path="url(#818a5210ea)"><g clip-path="url(#b3dc9ecba0)"><g clip-path="url(#ebc28fdc35)"><g clip-path="url(#6694550744)"><path fill="#4b5ae4" d="M 125.796875 70.128906 L 111.503906 107.179688 L 148.554688 121.472656 L 162.847656 84.421875 Z M 125.796875 70.128906 " fill-opacity="1" fill-rule="nonzero"/></g></g></g></g><g clip-path="url(#6de32c2bed)"><g clip-path="url(#aa6f88e57d)"><g clip-path="url(#aa50e1273c)"><g clip-path="url(#16b0e254b1)"><path fill="#4b5ae4" d="M 223.363281 71.867188 L 214.835938 93.972656 L 236.941406 102.5 L 245.46875 80.394531 Z M 223.363281 71.867188 " fill-opacity="1" fill-rule="nonzero"/></g></g></g></g><g clip-path="url(#ee7f2519bd)"><g clip-path="url(#8c34678664)"><g clip-path="url(#3c12ce9f52)"><g clip-path="url(#3806581006)"><path fill="#4b5ae4" d="M 306.617188 229.539062 L 293.167969 264.410156 L 328.039062 277.859375 L 341.488281 242.988281 Z M 306.617188 229.539062 " fill-opacity="1" fill-rule="nonzero"/></g></g></g></g><g transform="matrix(1, 0, 0, 1, 76, 122)"><g clip-path="url(#4f2272647e)"><g fill="#fcfdf2" fill-opacity="1"><g transform="translate(11.806579, 116.287915)"><g><path d="M 22.421875 -2 C 17.660156 -1.570312 13.851562 -2.265625 11 -4.078125 C 8.15625 -5.890625 6.066406 -8.4375 4.734375 -11.71875 C 3.410156 -15 2.617188 -18.648438 2.359375 -22.671875 C 2.097656 -26.703125 2.113281 -30.734375 2.40625 -34.765625 C 2.707031 -38.796875 3.101562 -42.523438 3.59375 -45.953125 C 4.09375 -49.378906 4.398438 -52.046875 4.515625 -53.953125 C 4.890625 -59.171875 4.59375 -63.78125 3.625 -67.78125 C 2.664062 -71.78125 1.410156 -75.382812 -0.140625 -78.59375 C -1.703125 -81.8125 -3.148438 -84.867188 -4.484375 -87.765625 C -5.828125 -90.660156 -6.71875 -93.546875 -7.15625 -96.421875 C -7.53125 -99.484375 -6.835938 -101.96875 -5.078125 -103.875 C -3.316406 -105.78125 -0.894531 -106.867188 2.1875 -107.140625 C 5.28125 -107.421875 7.925781 -106.550781 10.125 -104.53125 C 12.320312 -102.507812 14.226562 -99.800781 15.84375 -96.40625 C 17.46875 -93.019531 18.851562 -89.398438 20 -85.546875 C 21.144531 -81.691406 22.175781 -78.039062 23.09375 -74.59375 C 24.007812 -71.144531 24.914062 -68.351562 25.8125 -66.21875 C 26.707031 -64.09375 27.617188 -63.070312 28.546875 -63.15625 C 29.773438 -63.269531 30.53125 -64.394531 30.8125 -66.53125 C 31.101562 -68.675781 31.25 -71.300781 31.25 -74.40625 C 31.25 -77.507812 31.367188 -80.601562 31.609375 -83.6875 C 31.859375 -86.769531 32.472656 -89.414062 33.453125 -91.625 C 34.429688 -93.832031 36.085938 -95.039062 38.421875 -95.25 C 40.753906 -95.457031 42.625 -94.519531 44.03125 -92.4375 C 45.445312 -90.351562 46.578125 -87.695312 47.421875 -84.46875 C 48.273438 -81.238281 48.960938 -78 49.484375 -74.75 C 50.015625 -71.507812 50.5625 -68.804688 51.125 -66.640625 C 51.695312 -64.472656 52.457031 -63.429688 53.40625 -63.515625 C 54.53125 -63.609375 55.367188 -64.765625 55.921875 -66.984375 C 56.472656 -69.210938 56.875 -72.078125 57.125 -75.578125 C 57.382812 -79.085938 57.640625 -82.832031 57.890625 -86.8125 C 58.148438 -90.789062 58.585938 -94.617188 59.203125 -98.296875 C 59.828125 -101.972656 60.722656 -105.132812 61.890625 -107.78125 C 63.054688 -110.4375 64.695312 -112.140625 66.8125 -112.890625 C 67.53125 -113.148438 68.171875 -113.300781 68.734375 -113.34375 C 70.328125 -113.488281 71.9375 -113.160156 73.5625 -112.359375 C 75.1875 -111.554688 76.613281 -110.082031 77.84375 -107.9375 C 79.070312 -105.78125 79.804688 -103.113281 80.046875 -99.9375 C 80.285156 -96.757812 80.203125 -93.429688 79.796875 -89.953125 C 79.398438 -86.472656 78.921875 -83.15625 78.359375 -80 C 77.796875 -76.851562 77.375 -74.1875 77.09375 -72 C 76.75 -69.425781 76.96875 -66.378906 77.75 -62.859375 C 78.539062 -59.347656 79.5625 -55.597656 80.8125 -51.609375 C 82.0625 -47.628906 83.242188 -43.613281 84.359375 -39.5625 C 85.472656 -35.519531 86.242188 -31.613281 86.671875 -27.84375 C 87.109375 -24.070312 86.875 -20.640625 85.96875 -17.546875 C 85.0625 -14.453125 83.164062 -11.90625 80.28125 -9.90625 C 77.394531 -7.90625 73.242188 -6.660156 67.828125 -6.171875 C 67.171875 -6.117188 66.960938 -6.078125 67.203125 -6.046875 C 67.441406 -6.023438 66.90625 -5.957031 65.59375 -5.84375 C 62.144531 -5.53125 59.316406 -5.816406 57.109375 -6.703125 C 54.910156 -7.585938 53.15625 -8.769531 51.84375 -10.25 C 50.539062 -11.738281 49.535156 -13.253906 48.828125 -14.796875 C 48.128906 -16.347656 47.519531 -17.640625 47 -18.671875 C 46.488281 -19.703125 45.859375 -20.1875 45.109375 -20.125 C 44.273438 -20.050781 43.578125 -19.1875 43.015625 -17.53125 C 42.453125 -15.875 41.679688 -13.921875 40.703125 -11.671875 C 39.734375 -9.421875 38.195312 -7.398438 36.09375 -5.609375 C 33.988281 -3.828125 30.972656 -2.757812 27.046875 -2.40625 Z M 22.421875 -2 "/></g></g></g></g></g><g transform="matrix(1, 0, 0, 1, 162, 121)"><g clip-path="url(#a6312ce8e2)"><g fill="#fcfdf2" fill-opacity="1"><g transform="translate(18.098205, 102.844815)"><g><path d="M 6.5 -12.859375 C 5.039062 -17.265625 4.132812 -22 3.78125 -27.0625 C 3.425781 -32.125 3.53125 -37.1875 4.09375 -42.25 C 4.65625 -47.3125 5.625 -52.117188 7 -56.671875 C 8.375 -61.234375 10.054688 -65.175781 12.046875 -68.5 C 13.160156 -70.320312 14.613281 -71.976562 16.40625 -73.46875 C 18.195312 -74.96875 20.160156 -76.132812 22.296875 -76.96875 C 24.441406 -77.8125 26.566406 -78.160156 28.671875 -78.015625 C 29.441406 -77.960938 29.929688 -77.925781 30.140625 -77.90625 C 30.347656 -77.894531 30.554688 -77.878906 30.765625 -77.859375 C 30.984375 -77.847656 31.476562 -77.816406 32.25 -77.765625 C 35.820312 -77.523438 38.882812 -76.75 41.4375 -75.4375 C 43.988281 -74.132812 45.847656 -72.523438 47.015625 -70.609375 C 48.179688 -68.691406 48.378906 -66.742188 47.609375 -64.765625 C 47.160156 -63.460938 46.222656 -62.644531 44.796875 -62.3125 C 43.367188 -61.988281 41.742188 -61.894531 39.921875 -62.03125 C 38.585938 -62.113281 37.273438 -62.253906 35.984375 -62.453125 C 34.691406 -62.648438 33.488281 -62.785156 32.375 -62.859375 C 31.394531 -62.929688 30.5625 -62.898438 29.875 -62.765625 C 29.195312 -62.640625 28.84375 -62.296875 28.8125 -61.734375 C 28.675781 -60.816406 29.226562 -60.160156 30.46875 -59.765625 C 31.707031 -59.367188 33.234375 -59.019531 35.046875 -58.71875 C 36.859375 -58.414062 38.675781 -57.988281 40.5 -57.4375 C 42.320312 -56.882812 43.820312 -56 45 -54.78125 C 46.1875 -53.570312 46.707031 -51.847656 46.5625 -49.609375 C 46.425781 -47.710938 45.890625 -46.359375 44.953125 -45.546875 C 44.015625 -44.734375 42.816406 -44.234375 41.359375 -44.046875 C 39.898438 -43.867188 38.398438 -43.851562 36.859375 -44 C 35.328125 -44.144531 33.835938 -44.226562 32.390625 -44.25 C 30.953125 -44.28125 29.773438 -44.0625 28.859375 -43.59375 C 27.953125 -43.132812 27.453125 -42.238281 27.359375 -40.90625 C 27.179688 -38.3125 27.941406 -36.144531 29.640625 -34.40625 C 31.347656 -32.664062 33.820312 -31.6875 37.0625 -31.46875 C 37.34375 -31.445312 37.640625 -31.425781 37.953125 -31.40625 C 38.265625 -31.382812 38.566406 -31.398438 38.859375 -31.453125 C 38.992188 -31.441406 39.164062 -31.425781 39.375 -31.40625 C 39.59375 -31.394531 39.769531 -31.382812 39.90625 -31.375 C 42.570312 -31.195312 44.757812 -30.21875 46.46875 -28.4375 C 48.175781 -26.65625 49.359375 -24.457031 50.015625 -21.84375 C 50.679688 -19.226562 50.828125 -16.46875 50.453125 -13.5625 C 50.078125 -10.664062 49.132812 -7.984375 47.625 -5.515625 C 46.113281 -3.046875 44.035156 -1.078125 41.390625 0.390625 C 38.753906 1.859375 35.472656 2.457031 31.546875 2.1875 L 21.78125 1.515625 C 20.019531 1.390625 18.109375 0.675781 16.046875 -0.625 C 13.992188 -1.925781 12.109375 -3.640625 10.390625 -5.765625 C 8.671875 -7.898438 7.375 -10.265625 6.5 -12.859375 Z M 6.5 -12.859375 "/></g></g></g><g fill="#fcfdf2" fill-opacity="1"><g transform="translate(72.698988, 106.050619)"><g><path d="M 3.78125 -12.78125 C 1.789062 -16.5 0.175781 -20.601562 -1.0625 -25.09375 C -2.3125 -29.582031 -3.125 -34.15625 -3.5 -38.8125 C -3.882812 -43.46875 -3.851562 -47.96875 -3.40625 -52.3125 C -2.96875 -56.65625 -2.097656 -60.488281 -0.796875 -63.8125 C 0.222656 -66.488281 1.972656 -68.960938 4.453125 -71.234375 C 6.941406 -73.515625 9.617188 -74.828125 12.484375 -75.171875 C 13.191406 -75.253906 13.648438 -75.304688 13.859375 -75.328125 C 14.066406 -75.359375 14.253906 -75.382812 14.421875 -75.40625 C 14.597656 -75.425781 15.035156 -75.476562 15.734375 -75.5625 C 19.015625 -75.945312 21.921875 -75.773438 24.453125 -75.046875 C 26.984375 -74.328125 28.9375 -73.21875 30.3125 -71.71875 C 31.695312 -70.21875 32.226562 -68.492188 31.90625 -66.546875 C 31.6875 -65.316406 30.9375 -64.429688 29.65625 -63.890625 C 28.375 -63.347656 26.929688 -62.976562 25.328125 -62.78125 C 24.210938 -62.65625 23.039062 -62.554688 21.8125 -62.484375 C 20.582031 -62.410156 19.476562 -62.316406 18.5 -62.203125 C 17.59375 -62.085938 16.851562 -61.925781 16.28125 -61.71875 C 15.707031 -61.507812 15.453125 -61.128906 15.515625 -60.578125 C 15.535156 -59.722656 16.140625 -59.207031 17.328125 -59.03125 C 18.523438 -58.851562 19.96875 -58.789062 21.65625 -58.84375 C 23.351562 -58.90625 25.0625 -58.847656 26.78125 -58.671875 C 28.507812 -58.492188 30.007812 -57.960938 31.28125 -57.078125 C 32.550781 -56.203125 33.3125 -54.71875 33.5625 -52.625 C 33.8125 -50.53125 33.40625 -49.03125 32.34375 -48.125 C 31.28125 -47.226562 29.9375 -46.625 28.3125 -46.3125 C 26.6875 -46.007812 25.03125 -45.773438 23.34375 -45.609375 C 21.664062 -45.453125 20.273438 -45.09375 19.171875 -44.53125 C 18.066406 -43.976562 17.601562 -42.972656 17.78125 -41.515625 C 18.050781 -39.210938 19.097656 -37.40625 20.921875 -36.09375 C 22.742188 -34.789062 25.15625 -34.316406 28.15625 -34.671875 C 28.425781 -34.710938 28.679688 -34.757812 28.921875 -34.8125 C 29.171875 -34.875 29.4375 -34.921875 29.71875 -34.953125 C 29.851562 -34.972656 30.007812 -34.992188 30.1875 -35.015625 C 30.363281 -35.035156 30.550781 -35.054688 30.75 -35.078125 C 33.195312 -35.367188 35.328125 -34.863281 37.140625 -33.5625 C 38.960938 -32.257812 40.394531 -30.484375 41.4375 -28.234375 C 42.488281 -25.984375 43.082031 -23.519531 43.21875 -20.84375 C 43.363281 -18.175781 42.984375 -15.601562 42.078125 -13.125 C 41.171875 -10.644531 39.640625 -8.515625 37.484375 -6.734375 C 35.328125 -4.960938 32.460938 -3.863281 28.890625 -3.4375 L 19.890625 -2.375 C 18.285156 -2.175781 16.460938 -2.484375 14.421875 -3.296875 C 12.378906 -4.117188 10.410156 -5.335938 8.515625 -6.953125 C 6.628906 -8.566406 5.050781 -10.507812 3.78125 -12.78125 Z M 3.78125 -12.78125 "/></g></g></g><g fill="#fcfdf2" fill-opacity="1"><g transform="translate(123.645224, 100.254898)"><g><path d="M 4.9375 -4.796875 C 1.9375 -5.773438 -0.253906 -7.328125 -1.640625 -9.453125 C -3.035156 -11.585938 -3.910156 -14.0625 -4.265625 -16.875 C -4.628906 -19.6875 -4.738281 -22.632812 -4.59375 -25.71875 C -4.457031 -28.8125 -4.332031 -31.820312 -4.21875 -34.75 C -4.101562 -37.6875 -4.289062 -40.332031 -4.78125 -42.6875 C -5.257812 -44.75 -6.117188 -46.847656 -7.359375 -48.984375 C -8.609375 -51.128906 -9.910156 -53.269531 -11.265625 -55.40625 C -12.617188 -57.539062 -13.6875 -59.703125 -14.46875 -61.890625 C -15.25 -64.078125 -15.410156 -66.25 -14.953125 -68.40625 C -14.710938 -69.457031 -14.179688 -70.507812 -13.359375 -71.5625 C -12.535156 -72.625 -11.359375 -73.414062 -9.828125 -73.9375 C -7.296875 -74.789062 -5.21875 -74.640625 -3.59375 -73.484375 C -1.96875 -72.328125 -0.664062 -70.5625 0.3125 -68.1875 C 1.300781 -65.8125 2.15625 -63.171875 2.875 -60.265625 C 3.601562 -57.359375 4.347656 -54.582031 5.109375 -51.9375 C 5.253906 -52.582031 5.390625 -53.207031 5.515625 -53.8125 C 5.648438 -54.414062 5.726562 -55.019531 5.75 -55.625 C 5.769531 -56.882812 5.851562 -58.648438 6 -60.921875 C 6.15625 -63.203125 6.425781 -65.632812 6.8125 -68.21875 C 7.207031 -70.8125 7.75 -73.222656 8.4375 -75.453125 C 9.125 -77.679688 10.050781 -79.367188 11.21875 -80.515625 C 11.519531 -80.765625 11.910156 -81.046875 12.390625 -81.359375 C 12.878906 -81.671875 13.453125 -81.941406 14.109375 -82.171875 C 14.910156 -82.441406 15.804688 -82.59375 16.796875 -82.625 C 17.785156 -82.664062 18.734375 -82.539062 19.640625 -82.25 C 20.640625 -81.925781 21.582031 -81.222656 22.46875 -80.140625 C 23.363281 -79.066406 24.097656 -77.90625 24.671875 -76.65625 C 25.242188 -75.40625 25.472656 -74.28125 25.359375 -73.28125 C 25.171875 -70.550781 24.425781 -67.773438 23.125 -64.953125 C 21.820312 -62.140625 20.519531 -59.359375 19.21875 -56.609375 C 17.914062 -53.867188 17.191406 -51.175781 17.046875 -48.53125 C 18.316406 -49.175781 19.519531 -49.691406 20.65625 -50.078125 C 25.382812 -51.679688 29.816406 -51.195312 33.953125 -48.625 C 38.085938 -46.0625 42.59375 -41.972656 47.46875 -36.359375 C 48.445312 -35.203125 49.503906 -33.925781 50.640625 -32.53125 C 51.785156 -31.132812 52.785156 -29.671875 53.640625 -28.140625 C 54.492188 -26.617188 54.945312 -25.125 55 -23.65625 C 55.050781 -22.1875 54.5 -20.789062 53.34375 -19.46875 C 52.195312 -18.15625 50.160156 -17.003906 47.234375 -16.015625 L 41.4375 -14.046875 C 39.039062 -13.234375 37.113281 -13.0625 35.65625 -13.53125 C 34.195312 -14 33.03125 -14.921875 32.15625 -16.296875 C 31.28125 -17.671875 30.546875 -19.296875 29.953125 -21.171875 C 29.359375 -23.054688 28.734375 -24.960938 28.078125 -26.890625 C 27.421875 -28.816406 26.898438 -30.625 26.515625 -32.3125 C 26.128906 -34 25.613281 -35.398438 24.96875 -36.515625 C 24.320312 -37.640625 23.335938 -38.347656 22.015625 -38.640625 C 20.703125 -38.929688 18.8125 -38.660156 16.34375 -37.828125 C 16.082031 -37.734375 15.773438 -37.644531 15.421875 -37.5625 C 15.078125 -37.488281 14.703125 -37.414062 14.296875 -37.34375 C 16.515625 -35.132812 18.539062 -32.859375 20.375 -30.515625 C 22.207031 -28.171875 23.582031 -25.703125 24.5 -23.109375 C 25.414062 -20.523438 25.554688 -17.757812 24.921875 -14.8125 C 24.703125 -13.914062 24.328125 -12.875 23.796875 -11.6875 C 23.273438 -10.5 22.351562 -9.347656 21.03125 -8.234375 C 19.707031 -7.128906 17.710938 -6.125 15.046875 -5.21875 C 13.378906 -4.65625 11.71875 -4.296875 10.0625 -4.140625 C 8.40625 -3.984375 6.695312 -4.203125 4.9375 -4.796875 Z M 4.9375 -4.796875 "/></g></g></g></g></g><g transform="matrix(1, 0, 0, 1, 187, 245)"><g clip-path="url(#dfbfb65ae5)"><g fill="#fcfdf2" fill-opacity="1"><g transform="translate(3.711006, 22.376221)"><g><path d="M 22.078125 -7.96875 L 14.34375 4.1875 L 12.390625 3.625 L 12.4375 -7.984375 L 6.09375 1.78125 L 4.171875 1.234375 L 4.328125 -13.171875 L 6.1875 -12.625 L 5.78125 -0.515625 L 12.28125 -10.84375 L 14.234375 -10.265625 L 14 1.875 L 20.203125 -8.515625 Z M 22.078125 -7.96875 "/></g></g></g><g fill="#fcfdf2" fill-opacity="1"><g transform="translate(24.388773, 27.625587)"><g><path d="M 11.5 -5.828125 C 11.5 -5.472656 11.476562 -5.109375 11.4375 -4.734375 L 2.71875 -4.765625 C 2.78125 -3.679688 3.144531 -2.835938 3.8125 -2.234375 C 4.476562 -1.640625 5.289062 -1.34375 6.25 -1.34375 C 7.03125 -1.332031 7.679688 -1.507812 8.203125 -1.875 C 8.734375 -2.238281 9.109375 -2.722656 9.328125 -3.328125 L 11.28125 -3.3125 C 10.976562 -2.28125 10.382812 -1.4375 9.5 -0.78125 C 8.625 -0.125 7.539062 0.195312 6.25 0.1875 C 5.207031 0.1875 4.28125 -0.0390625 3.46875 -0.5 C 2.65625 -0.96875 2.019531 -1.628906 1.5625 -2.484375 C 1.101562 -3.347656 0.875 -4.34375 0.875 -5.46875 C 0.882812 -6.59375 1.113281 -7.578125 1.5625 -8.421875 C 2.007812 -9.273438 2.640625 -9.925781 3.453125 -10.375 C 4.273438 -10.832031 5.21875 -11.0625 6.28125 -11.0625 C 7.3125 -11.050781 8.222656 -10.816406 9.015625 -10.359375 C 9.816406 -9.910156 10.429688 -9.289062 10.859375 -8.5 C 11.296875 -7.707031 11.507812 -6.816406 11.5 -5.828125 Z M 9.625 -6.21875 C 9.632812 -6.90625 9.484375 -7.492188 9.171875 -7.984375 C 8.867188 -8.484375 8.457031 -8.863281 7.9375 -9.125 C 7.414062 -9.382812 6.835938 -9.519531 6.203125 -9.53125 C 5.285156 -9.53125 4.503906 -9.238281 3.859375 -8.65625 C 3.210938 -8.070312 2.835938 -7.265625 2.734375 -6.234375 Z M 9.625 -6.21875 "/></g></g></g><g fill="#fcfdf2" fill-opacity="1"><g transform="translate(38.28689, 27.501889)"><g><path d="M 9.953125 -8.1875 C 10.035156 -7.84375 10.09375 -7.488281 10.125 -7.125 L 1.609375 -5.25 C 1.910156 -4.195312 2.453125 -3.453125 3.234375 -3.015625 C 4.015625 -2.578125 4.875 -2.460938 5.8125 -2.671875 C 6.570312 -2.835938 7.164062 -3.148438 7.59375 -3.609375 C 8.03125 -4.078125 8.289062 -4.632812 8.375 -5.28125 L 10.28125 -5.6875 C 10.21875 -4.601562 9.828125 -3.644531 9.109375 -2.8125 C 8.390625 -1.988281 7.398438 -1.441406 6.140625 -1.171875 C 5.117188 -0.941406 4.160156 -0.96875 3.265625 -1.25 C 2.378906 -1.53125 1.617188 -2.035156 0.984375 -2.765625 C 0.347656 -3.503906 -0.0859375 -4.425781 -0.328125 -5.53125 C -0.566406 -6.625 -0.554688 -7.632812 -0.296875 -8.5625 C -0.046875 -9.488281 0.425781 -10.265625 1.125 -10.890625 C 1.820312 -11.515625 2.691406 -11.941406 3.734375 -12.171875 C 4.734375 -12.390625 5.671875 -12.363281 6.546875 -12.09375 C 7.429688 -11.820312 8.164062 -11.34375 8.75 -10.65625 C 9.34375 -9.976562 9.742188 -9.15625 9.953125 -8.1875 Z M 8.046875 -8.171875 C 7.898438 -8.835938 7.625 -9.378906 7.21875 -9.796875 C 6.8125 -10.210938 6.320312 -10.492188 5.75 -10.640625 C 5.1875 -10.785156 4.597656 -10.789062 3.984375 -10.65625 C 3.085938 -10.457031 2.382812 -10 1.875 -9.28125 C 1.375 -8.570312 1.1875 -7.707031 1.3125 -6.6875 Z M 8.046875 -8.171875 "/></g></g></g><g fill="#fcfdf2" fill-opacity="1"><g transform="translate(51.683716, 24.310986)"><g><path d="M 6.96875 -3.09375 L 1.109375 -5.765625 L 3.0625 -1.359375 L 1.40625 -0.625 L -4.546875 -14.078125 L -2.890625 -14.8125 L 0.609375 -6.90625 L 2.46875 -13.015625 L 4.78125 -14.046875 L 2.296875 -7 L 9.21875 -4.078125 Z M 6.96875 -3.09375 "/></g></g></g></g></g></g></g></svg>